<?xml version="1.0" standalone="no"?>
<!DOCTYPE svg PUBLIC "-//W3C//DTD SVG 20010904//EN"
 "http://www.w3.org/TR/2001/REC-SVG-20010904/DTD/svg10.dtd">
<svg version="1.0" xmlns="http://www.w3.org/2000/svg"
 width="700.000000pt" height="700.000000pt" viewBox="0 0 700.000000 700.000000"
 preserveAspectRatio="xMidYMid meet">
<metadata>
Created by potrace 1.14, written by Peter Selinger 2001-2017
</metadata>
<g transform="translate(0.000000,700.000000) scale(0.100000,-0.100000)"
fill="#000000" stroke="none">
<path d="M5364 6989 c-17 -5 -71 -34 -120 -65 -49 -31 -114 -72 -144 -91 -48
-30 -1229 -786 -1270 -813 -26 -17 -205 -132 -320 -205 -359 -228 -493 -329
-662 -498 -125 -125 -238 -263 -330 -403 -117 -176 -147 -236 -408 -824 -111
-250 -210 -473 -220 -495 -10 -22 -46 -103 -80 -180 -34 -77 -75 -168 -91
-203 -16 -35 -29 -65 -29 -67 0 -2 -15 -36 -34 -77 -19 -40 -114 -253 -211
-473 -97 -220 -185 -418 -195 -440 -10 -22 -64 -143 -120 -270 -56 -126 -115
-258 -131 -293 -16 -35 -29 -65 -29 -67 0 -2 -14 -34 -31 -72 -17 -37 -37 -82
-45 -100 -8 -17 -14 -33 -14 -36 0 -6 1932 -7 1942 -1 3 2 -29 111 -73 242
l-79 238 -297 99 c-279 93 -300 101 -338 139 -98 99 -81 262 35 337 14 9 152
58 305 109 154 51 284 96 289 100 4 5 52 138 106 298 53 159 106 301 116 315
79 105 236 115 330 21 39 -39 47 -58 140 -336 l98 -296 276 -92 c151 -51 289
-99 305 -107 137 -68 160 -249 46 -358 -25 -23 -92 -50 -329 -130 l-297 -100
-77 -230 c-43 -126 -78 -235 -78 -241 0 -8 380 -11 1410 -12 776 0 1410 2
1410 5 0 5 -323 737 -407 923 -14 30 -70 156 -125 280 -55 124 -108 243 -118
265 -10 22 -100 225 -200 450 -100 226 -190 428 -200 450 -116 248 -232 528
-244 587 -14 69 -15 141 -1 223 4 22 198 517 433 1100 l425 1060 1 80 c0 58
-5 90 -18 115 -25 49 -74 98 -120 122 -43 22 -133 31 -182 17z m-1594 -1864
c37 -19 48 -40 100 -202 l43 -132 155 -53 c118 -40 160 -59 174 -79 40 -54 25
-121 -34 -157 -18 -11 -92 -38 -164 -61 l-131 -43 -47 -146 c-37 -114 -54
-153 -77 -174 -48 -45 -129 -35 -161 20 -8 15 -35 88 -59 163 l-44 136 -130
43 c-71 23 -144 49 -162 57 -62 29 -78 118 -31 170 13 14 73 40 162 69 77 25
146 51 153 56 6 5 32 74 58 153 38 118 52 149 76 170 35 29 76 32 119 10z"/>
<path d="M369 868 c-63 -9 -117 -31 -176 -70 -226 -152 -257 -475 -63 -668 30
-30 76 -65 100 -78 109 -55 -104 -52 3262 -52 2279 0 3121 3 3160 11 214 46
353 227 344 448 -7 181 -112 322 -291 391 l-60 23 -3111 1 c-1711 1 -3135 -2
-3165 -6z"/>
</g>
</svg>
